<?xml version="1.0" encoding="UTF-8"?>
<mxfile host="app.diagrams.net">
  <diagram name="User Registration Flowchart" id="userRegFlow">
    <mxGraphModel dx="1000" dy="800" grid="1" gridSize="10" guides="1" tooltips="1" connect="1"
      arrows="1" fold="1" page="1" pageScale="1" pageWidth="827" pageHeight="1169" math="0" shadow="0">
      <root>
        <mxCell id="0" />
        <mxCell id="1" parent="0" />

        <!-- Start -->
        <mxCell id="2" value="Start" style="ellipse;whiteSpace=wrap;html=1;fillColor=#d5e8d4;" vertex="1" parent="1">
          <mxGeometry x="160" y="40" width="120" height="60" as="geometry" />
        </mxCell>

        <!-- Input -->
        <mxCell id="3" value="User Submits Registration Form" style="rounded=1;whiteSpace=wrap;html=1;" vertex="1" parent="1">
          <mxGeometry x="140" y="120" width="180" height="60" as="geometry" />
        </mxCell>

        <!-- Validate -->
        <mxCell id="4" value="Validate Input" style="rounded=1;whiteSpace=wrap;html=1;fillColor=#dae8fc;" vertex="1" parent="1">
          <mxGeometry x="120" y="200" width="220" height="60" as="geometry" />
        </mxCell>

        <!-- Decision -->
        <mxCell id="5" value="Email Exists?" style="rhombus;whiteSpace=wrap;html=1;" vertex="1" parent="1">
          <mxGeometry x="150" y="280" width="160" height="60" as="geometry" />
        </mxCell>

        <!-- Error -->
        <mxCell id="6" value="Return Error: Email Taken" style="rounded=1;whiteSpace=wrap;html=1;fillColor=#f8cecc;" vertex="1" parent="1">
          <mxGeometry x="-10" y="380" width="200" height="60" as="geometry" />
        </mxCell>

        <!-- Hash -->
        <mxCell id="7" value="Hash Password" style="rounded=1;whiteSpace=wrap;html=1;" vertex="1" parent="1">
          <mxGeometry x="300" y="380" width="180" height="60" as="geometry" />
        </mxCell>

        <!-- Save -->
        <mxCell id="8" value="Save User to DB" style="rounded=1;whiteSpace=wrap;html=1;" vertex="1" parent="1">
          <mxGeometry x="300" y="460" width="180" height="60" as="geometry" />
        </mxCell>

        <!-- Token -->
        <mxCell id="9" value="Generate JWT Token" style="rounded=1;whiteSpace=wrap;html=1;" vertex="1" parent="1">
          <mxGeometry x="300" y="540" width="180" height="60" as="geometry" />
        </mxCell>

        <!-- Success -->
        <mxCell id="10" value="Return Success with Token" style="rounded=1;whiteSpace=wrap;html=1;fillColor=#d5e8d4;" vertex="1" parent="1">
          <mxGeometry x="300" y="620" width="180" height="60" as="geometry" />
        </mxCell>

        <!-- Connections -->
        <mxCell id="11" style="endArrow=block;" edge="1" parent="1" source="2" target="3">
          <mxGeometry relative="1" as="geometry" />
        </mxCell>
        <mxCell id="12" style="endArrow=block;" edge="1" parent="1" source="3" target="4">
          <mxGeometry relative="1" as="geometry" />
        </mxCell>
        <mxCell id="13" style="endArrow=block;" edge="1" parent="1" source="4" target="5">
          <mxGeometry relative="1" as="geometry" />
        </mxCell>
        <mxCell id="14" style="endArrow=block;" edge="1" parent="1" source="5" target="6">
          <mxGeometry relative="1" as="geometry">
            <mxPoint x="90" y="360" as="targetPoint" />
          </mxGeometry>
        </mxCell>
        <mxCell id="15" style="endArrow=block;" edge="1" parent="1" source="5" target="7">
          <mxGeometry relative="1" as="geometry">
            <mxPoint x="340" y="360" as="targetPoint" />
          </mxGeometry>
        </mxCell>
        <mxCell id="16" style="endArrow=block;" edge="1" parent="1" source="7" target="8">
          <mxGeometry relative="1" as="geometry" />
        </mxCell>
        <mxCell id="17" style="endArrow=block;" edge="1" parent="1" source="8" target="9">
          <mxGeometry relative="1" as="geometry" />
        </mxCell>
        <mxCell id="18" style="endArrow=block;" edge="1" parent="1" source="9" target="10">
          <mxGeometry relative="1" as="geometry" />
        </mxCell>

      </root>
    </mxGraphModel>
  </diagram>
</mxfile>